<mxfile host="app.diagrams.net" modified="2020-06-02T08:10:55.357Z" agent="5.0 (Windows NT 10.0; Win64; x64) AppleWebKit/537.36 (KHTML, like Gecko) Chrome/83.0.4103.61 Safari/537.36" etag="RckLkzpdsmr3zPfAV1Co" version="13.1.12" type="github">
  <diagram id="Gw2cvcBUTN6nHkoxgNHv" name="Page-1">
    <mxGraphModel dx="1422" dy="713" grid="1" gridSize="10" guides="1" tooltips="1" connect="1" arrows="1" fold="1" page="1" pageScale="1" pageWidth="827" pageHeight="1169" math="0" shadow="0">
      <root>
        <mxCell id="0" />
        <mxCell id="1" parent="0" />
        <mxCell id="huKRcMz7WkF6DCZG_Hzh-1" value="Bruker" style="shape=umlActor;verticalLabelPosition=bottom;labelBackgroundColor=#ffffff;verticalAlign=top;html=1;outlineConnect=0;" parent="1" vertex="1">
          <mxGeometry x="150" y="320" width="30" height="60" as="geometry" />
        </mxCell>
        <mxCell id="huKRcMz7WkF6DCZG_Hzh-2" value="" style="rounded=0;whiteSpace=wrap;html=1;fillColor=#dae8fc;strokeColor=#6c8ebf;" parent="1" vertex="1">
          <mxGeometry x="330" y="100" width="446" height="530" as="geometry" />
        </mxCell>
        <mxCell id="huKRcMz7WkF6DCZG_Hzh-5" value="Lampeplassering" style="ellipse;whiteSpace=wrap;html=1;" parent="1" vertex="1">
          <mxGeometry x="390" y="120" width="120" height="80" as="geometry" />
        </mxCell>
        <mxCell id="huKRcMz7WkF6DCZG_Hzh-6" value="Varmekabel CC" style="ellipse;whiteSpace=wrap;html=1;" parent="1" vertex="1">
          <mxGeometry x="390" y="210" width="120" height="80" as="geometry" />
        </mxCell>
        <mxCell id="huKRcMz7WkF6DCZG_Hzh-7" value="Utstyrsliste" style="ellipse;whiteSpace=wrap;html=1;" parent="1" vertex="1">
          <mxGeometry x="390" y="400" width="120" height="80" as="geometry" />
        </mxCell>
        <mxCell id="huKRcMz7WkF6DCZG_Hzh-8" value="instillinger" style="ellipse;whiteSpace=wrap;html=1;" parent="1" vertex="1">
          <mxGeometry x="390" y="510" width="120" height="80" as="geometry" />
        </mxCell>
        <mxCell id="huKRcMz7WkF6DCZG_Hzh-9" value="" style="endArrow=classic;html=1;exitX=1;exitY=0.3333333333333333;exitDx=0;exitDy=0;exitPerimeter=0;entryX=0;entryY=0.5;entryDx=0;entryDy=0;" parent="1" source="huKRcMz7WkF6DCZG_Hzh-1" target="huKRcMz7WkF6DCZG_Hzh-5" edge="1">
          <mxGeometry width="50" height="50" relative="1" as="geometry">
            <mxPoint x="160" y="250" as="sourcePoint" />
            <mxPoint x="210" y="200" as="targetPoint" />
            <Array as="points">
              <mxPoint x="260" y="200" />
            </Array>
          </mxGeometry>
        </mxCell>
        <mxCell id="huKRcMz7WkF6DCZG_Hzh-10" value="" style="endArrow=classic;html=1;exitX=1;exitY=0.3333333333333333;exitDx=0;exitDy=0;exitPerimeter=0;entryX=0;entryY=0.5;entryDx=0;entryDy=0;rounded=0;strokeColor=#000000;" parent="1" source="huKRcMz7WkF6DCZG_Hzh-1" target="huKRcMz7WkF6DCZG_Hzh-6" edge="1">
          <mxGeometry width="50" height="50" relative="1" as="geometry">
            <mxPoint x="50" y="340" as="sourcePoint" />
            <mxPoint x="100" y="290" as="targetPoint" />
            <Array as="points">
              <mxPoint x="240" y="280" />
            </Array>
          </mxGeometry>
        </mxCell>
        <mxCell id="huKRcMz7WkF6DCZG_Hzh-11" value="" style="endArrow=classic;html=1;entryX=0;entryY=0.5;entryDx=0;entryDy=0;exitX=1;exitY=0.3333333333333333;exitDx=0;exitDy=0;exitPerimeter=0;" parent="1" source="huKRcMz7WkF6DCZG_Hzh-1" target="huKRcMz7WkF6DCZG_Hzh-7" edge="1">
          <mxGeometry width="50" height="50" relative="1" as="geometry">
            <mxPoint x="90" y="550" as="sourcePoint" />
            <mxPoint x="140" y="500" as="targetPoint" />
            <Array as="points">
              <mxPoint x="250" y="400" />
            </Array>
          </mxGeometry>
        </mxCell>
        <mxCell id="huKRcMz7WkF6DCZG_Hzh-12" value="" style="endArrow=classic;html=1;exitX=1;exitY=0.3333333333333333;exitDx=0;exitDy=0;exitPerimeter=0;entryX=0;entryY=0.5;entryDx=0;entryDy=0;" parent="1" source="huKRcMz7WkF6DCZG_Hzh-1" target="huKRcMz7WkF6DCZG_Hzh-8" edge="1">
          <mxGeometry width="50" height="50" relative="1" as="geometry">
            <mxPoint x="140" y="680" as="sourcePoint" />
            <mxPoint x="190" y="630" as="targetPoint" />
            <Array as="points">
              <mxPoint x="290" y="500" />
            </Array>
          </mxGeometry>
        </mxCell>
        <mxCell id="huKRcMz7WkF6DCZG_Hzh-14" value="lagring" style="ellipse;whiteSpace=wrap;html=1;" parent="1" vertex="1">
          <mxGeometry x="550" y="460" width="120" height="80" as="geometry" />
        </mxCell>
        <mxCell id="huKRcMz7WkF6DCZG_Hzh-15" value="" style="html=1;verticalAlign=bottom;endArrow=open;dashed=1;endSize=8;exitX=1;exitY=0.5;exitDx=0;exitDy=0;entryX=0;entryY=1;entryDx=0;entryDy=0;" parent="1" source="huKRcMz7WkF6DCZG_Hzh-8" target="huKRcMz7WkF6DCZG_Hzh-14" edge="1">
          <mxGeometry x="-1" y="-195" relative="1" as="geometry">
            <mxPoint x="210" y="640" as="sourcePoint" />
            <mxPoint x="130" y="640" as="targetPoint" />
            <mxPoint x="-44" y="20" as="offset" />
          </mxGeometry>
        </mxCell>
        <mxCell id="huKRcMz7WkF6DCZG_Hzh-16" value="" style="html=1;verticalAlign=bottom;endArrow=open;dashed=1;endSize=8;exitX=1;exitY=0.5;exitDx=0;exitDy=0;entryX=0;entryY=0;entryDx=0;entryDy=0;" parent="1" source="huKRcMz7WkF6DCZG_Hzh-7" target="huKRcMz7WkF6DCZG_Hzh-14" edge="1">
          <mxGeometry x="-1" y="-195" relative="1" as="geometry">
            <mxPoint x="520" y="554.5" as="sourcePoint" />
            <mxPoint x="577.5735931288073" y="518.2842712474617" as="targetPoint" />
            <mxPoint x="-44" y="20" as="offset" />
          </mxGeometry>
        </mxCell>
        <mxCell id="U7UoZdtOcDdDpfqkcxBa-1" value="Prishjelper" style="ellipse;whiteSpace=wrap;html=1;" parent="1" vertex="1">
          <mxGeometry x="390" y="300" width="120" height="80" as="geometry" />
        </mxCell>
        <mxCell id="U7UoZdtOcDdDpfqkcxBa-5" value="" style="endArrow=classic;html=1;rounded=0;strokeColor=#000000;exitX=1;exitY=0.3333333333333333;exitDx=0;exitDy=0;exitPerimeter=0;" parent="1" source="huKRcMz7WkF6DCZG_Hzh-1" target="U7UoZdtOcDdDpfqkcxBa-1" edge="1">
          <mxGeometry width="50" height="50" relative="1" as="geometry">
            <mxPoint x="190" y="350" as="sourcePoint" />
            <mxPoint x="400" y="240" as="targetPoint" />
            <Array as="points" />
          </mxGeometry>
        </mxCell>
      </root>
    </mxGraphModel>
  </diagram>
</mxfile>
